<svg width="195" height="59" viewBox="0 0 195 59" fill="none" xmlns="http://www.w3.org/2000/svg">
<rect x="5" y="7" width="190" height="52" rx="24" fill="url(#paint0_linear_12_252)"/>
<rect width="190" height="52" rx="24" fill="white"/>
<path d="M27.74 25.8C28.5533 25.9733 29.2067 26.38 29.7 27.02C30.1933 27.6467 30.44 28.3667 30.44 29.18C30.44 30.3533 30.0267 31.2867 29.2 31.98C28.3867 32.66 27.2467 33 25.78 33H19.24V18.96H25.56C26.9867 18.96 28.1 19.2867 28.9 19.94C29.7133 20.5933 30.12 21.48 30.12 22.6C30.12 23.4267 29.9 24.1133 29.46 24.66C29.0333 25.2067 28.46 25.5867 27.74 25.8ZM22.66 24.64H24.9C25.46 24.64 25.8867 24.52 26.18 24.28C26.4867 24.0267 26.64 23.66 26.64 23.18C26.64 22.7 26.4867 22.3333 26.18 22.08C25.8867 21.8267 25.46 21.7 24.9 21.7H22.66V24.64ZM25.18 30.24C25.7533 30.24 26.1933 30.1133 26.5 29.86C26.82 29.5933 26.98 29.2133 26.98 28.72C26.98 28.2267 26.8133 27.84 26.48 27.56C26.16 27.28 25.7133 27.14 25.14 27.14H22.66V30.24H25.18ZM42.9436 27.24C42.9436 27.56 42.9236 27.8933 42.8836 28.24H35.1436C35.1969 28.9333 35.4169 29.4667 35.8036 29.84C36.2036 30.2 36.6903 30.38 37.2636 30.38C38.1169 30.38 38.7103 30.02 39.0436 29.3H42.6836C42.4969 30.0333 42.1569 30.6933 41.6636 31.28C41.1836 31.8667 40.5769 32.3267 39.8436 32.66C39.1103 32.9933 38.2903 33.16 37.3836 33.16C36.2903 33.16 35.3169 32.9267 34.4636 32.46C33.6103 31.9933 32.9436 31.3267 32.4636 30.46C31.9836 29.5933 31.7436 28.58 31.7436 27.42C31.7436 26.26 31.9769 25.2467 32.4436 24.38C32.9236 23.5133 33.5903 22.8467 34.4436 22.38C35.2969 21.9133 36.2769 21.68 37.3836 21.68C38.4636 21.68 39.4236 21.9067 40.2636 22.36C41.1036 22.8133 41.7569 23.46 42.2236 24.3C42.7036 25.14 42.9436 26.12 42.9436 27.24ZM39.4436 26.34C39.4436 25.7533 39.2436 25.2867 38.8436 24.94C38.4436 24.5933 37.9436 24.42 37.3436 24.42C36.7703 24.42 36.2836 24.5867 35.8836 24.92C35.4969 25.2533 35.2569 25.7267 35.1636 26.34H39.4436ZM48.1678 23.7C48.5678 23.0867 49.0678 22.6067 49.6678 22.26C50.2678 21.9 50.9345 21.72 51.6678 21.72V25.34H50.7278C49.8745 25.34 49.2345 25.5267 48.8078 25.9C48.3811 26.26 48.1678 26.9 48.1678 27.82V33H44.7478V21.84H48.1678V23.7ZM52.6225 27.4C52.6225 26.2533 52.8358 25.2467 53.2625 24.38C53.7025 23.5133 54.2958 22.8467 55.0425 22.38C55.7892 21.9133 56.6225 21.68 57.5425 21.68C58.3292 21.68 59.0158 21.84 59.6025 22.16C60.2025 22.48 60.6625 22.9 60.9825 23.42V21.84H64.4025V33H60.9825V31.42C60.6492 31.94 60.1825 32.36 59.5825 32.68C58.9958 33 58.3092 33.16 57.5225 33.16C56.6158 33.16 55.7892 32.9267 55.0425 32.46C54.2958 31.98 53.7025 31.3067 53.2625 30.44C52.8358 29.56 52.6225 28.5467 52.6225 27.4ZM60.9825 27.42C60.9825 26.5667 60.7425 25.8933 60.2625 25.4C59.7958 24.9067 59.2225 24.66 58.5425 24.66C57.8625 24.66 57.2825 24.9067 56.8025 25.4C56.3358 25.88 56.1025 26.5467 56.1025 27.4C56.1025 28.2533 56.3358 28.9333 56.8025 29.44C57.2825 29.9333 57.8625 30.18 58.5425 30.18C59.2225 30.18 59.7958 29.9333 60.2625 29.44C60.7425 28.9467 60.9825 28.2733 60.9825 27.42ZM73.6967 33L70.2967 28.32V33H66.8767V18.2H70.2967V26.38L73.6767 21.84H77.8967L73.2567 27.44L77.9367 33H73.6967ZM82.66 23.7C83.06 23.0867 83.56 22.6067 84.16 22.26C84.76 21.9 85.4267 21.72 86.16 21.72V25.34H85.22C84.3667 25.34 83.7267 25.5267 83.3 25.9C82.8733 26.26 82.66 26.9 82.66 27.82V33H79.24V21.84H82.66V23.7ZM98.3147 27.24C98.3147 27.56 98.2947 27.8933 98.2547 28.24H90.5147C90.568 28.9333 90.788 29.4667 91.1747 29.84C91.5747 30.2 92.0614 30.38 92.6347 30.38C93.488 30.38 94.0814 30.02 94.4147 29.3H98.0547C97.868 30.0333 97.528 30.6933 97.0347 31.28C96.5547 31.8667 95.948 32.3267 95.2147 32.66C94.4814 32.9933 93.6614 33.16 92.7547 33.16C91.6614 33.16 90.688 32.9267 89.8347 32.46C88.9814 31.9933 88.3147 31.3267 87.8347 30.46C87.3547 29.5933 87.1147 28.58 87.1147 27.42C87.1147 26.26 87.348 25.2467 87.8147 24.38C88.2947 23.5133 88.9614 22.8467 89.8147 22.38C90.668 21.9133 91.648 21.68 92.7547 21.68C93.8347 21.68 94.7947 21.9067 95.6347 22.36C96.4747 22.8133 97.128 23.46 97.5947 24.3C98.0747 25.14 98.3147 26.12 98.3147 27.24ZM94.8147 26.34C94.8147 25.7533 94.6147 25.2867 94.2147 24.94C93.8147 24.5933 93.3147 24.42 92.7147 24.42C92.1414 24.42 91.6547 24.5867 91.2547 24.92C90.868 25.2533 90.628 25.7267 90.5347 26.34H94.8147ZM99.4389 27.4C99.4389 26.2533 99.6522 25.2467 100.079 24.38C100.519 23.5133 101.112 22.8467 101.859 22.38C102.606 21.9133 103.439 21.68 104.359 21.68C105.092 21.68 105.759 21.8333 106.359 22.14C106.972 22.4467 107.452 22.86 107.799 23.38V18.2H111.219V33H107.799V31.4C107.479 31.9333 107.019 32.36 106.419 32.68C105.832 33 105.146 33.16 104.359 33.16C103.439 33.16 102.606 32.9267 101.859 32.46C101.112 31.98 100.519 31.3067 100.079 30.44C99.6522 29.56 99.4389 28.5467 99.4389 27.4ZM107.799 27.42C107.799 26.5667 107.559 25.8933 107.079 25.4C106.612 24.9067 106.039 24.66 105.359 24.66C104.679 24.66 104.099 24.9067 103.619 25.4C103.152 25.88 102.919 26.5467 102.919 27.4C102.919 28.2533 103.152 28.9333 103.619 29.44C104.099 29.9333 104.679 30.18 105.359 30.18C106.039 30.18 106.612 29.9333 107.079 29.44C107.559 28.9467 107.799 28.2733 107.799 27.42ZM115.413 20.68C114.813 20.68 114.32 20.5067 113.933 20.16C113.56 19.8 113.373 19.36 113.373 18.84C113.373 18.3067 113.56 17.8667 113.933 17.52C114.32 17.16 114.813 16.98 115.413 16.98C116 16.98 116.48 17.16 116.853 17.52C117.24 17.8667 117.433 18.3067 117.433 18.84C117.433 19.36 117.24 19.8 116.853 20.16C116.48 20.5067 116 20.68 115.413 20.68ZM117.113 21.84V33H113.693V21.84H117.113ZM125.812 30.1V33H124.072C122.832 33 121.865 32.7 121.172 32.1C120.478 31.4867 120.132 30.4933 120.132 29.12V24.68H118.772V21.84H120.132V19.12H123.552V21.84H125.792V24.68H123.552V29.16C123.552 29.4933 123.632 29.7333 123.792 29.88C123.952 30.0267 124.218 30.1 124.592 30.1H125.812ZM127.037 27.4C127.037 26.2533 127.25 25.2467 127.677 24.38C128.117 23.5133 128.71 22.8467 129.457 22.38C130.203 21.9133 131.037 21.68 131.957 21.68C132.743 21.68 133.43 21.84 134.017 22.16C134.617 22.48 135.077 22.9 135.397 23.42V21.84H138.817V33H135.397V31.42C135.063 31.94 134.597 32.36 133.997 32.68C133.41 33 132.723 33.16 131.937 33.16C131.03 33.16 130.203 32.9267 129.457 32.46C128.71 31.98 128.117 31.3067 127.677 30.44C127.25 29.56 127.037 28.5467 127.037 27.4ZM135.397 27.42C135.397 26.5667 135.157 25.8933 134.677 25.4C134.21 24.9067 133.637 24.66 132.957 24.66C132.277 24.66 131.697 24.9067 131.217 25.4C130.75 25.88 130.517 26.5467 130.517 27.4C130.517 28.2533 130.75 28.9333 131.217 29.44C131.697 29.9333 132.277 30.18 132.957 30.18C133.637 30.18 134.21 29.9333 134.677 29.44C135.157 28.9467 135.397 28.2733 135.397 27.42ZM145.831 33.16C144.857 33.16 143.991 32.9933 143.231 32.66C142.471 32.3267 141.871 31.8733 141.431 31.3C140.991 30.7133 140.744 30.06 140.691 29.34H144.071C144.111 29.7267 144.291 30.04 144.611 30.28C144.931 30.52 145.324 30.64 145.791 30.64C146.217 30.64 146.544 30.56 146.771 30.4C147.011 30.2267 147.131 30.0067 147.131 29.74C147.131 29.42 146.964 29.1867 146.631 29.04C146.297 28.88 145.757 28.7067 145.011 28.52C144.211 28.3333 143.544 28.14 143.011 27.94C142.477 27.7267 142.017 27.4 141.631 26.96C141.244 26.5067 141.051 25.9 141.051 25.14C141.051 24.5 141.224 23.92 141.571 23.4C141.931 22.8667 142.451 22.4467 143.131 22.14C143.824 21.8333 144.644 21.68 145.591 21.68C146.991 21.68 148.091 22.0267 148.891 22.72C149.704 23.4133 150.171 24.3333 150.291 25.48H147.131C147.077 25.0933 146.904 24.7867 146.611 24.56C146.331 24.3333 145.957 24.22 145.491 24.22C145.091 24.22 144.784 24.3 144.571 24.46C144.357 24.6067 144.251 24.8133 144.251 25.08C144.251 25.4 144.417 25.64 144.751 25.8C145.097 25.96 145.631 26.12 146.351 26.28C147.177 26.4933 147.851 26.7067 148.371 26.92C148.891 27.12 149.344 27.4533 149.731 27.92C150.131 28.3733 150.337 28.9867 150.351 29.76C150.351 30.4133 150.164 31 149.791 31.52C149.431 32.0267 148.904 32.4267 148.211 32.72C147.531 33.0133 146.737 33.16 145.831 33.16ZM165.421 30.52H160.181L159.341 33H155.761L160.841 18.96H164.801L169.881 33H166.261L165.421 30.52ZM164.541 27.88L162.801 22.74L161.081 27.88H164.541Z" fill="#023047"/>
<defs>
<linearGradient id="paint0_linear_12_252" x1="100" y1="7" x2="100" y2="59" gradientUnits="userSpaceOnUse">
<stop stop-color="#7098EE"/>
<stop offset="0.9999" stop-color="#0236A7"/>
<stop offset="1" stop-color="#264998" stop-opacity="0"/>
</linearGradient>
</defs>
</svg>
