<svg width="136" height="58" viewBox="0 0 136 58" fill="none" xmlns="http://www.w3.org/2000/svg">
<g filter="url(#filter0_d_40_78)">
<rect x="6" y="8" width="108" height="29.9875" rx="14.9937" fill="white" fill-opacity="0.82" shape-rendering="crispEdges"/>
<path fill-rule="evenodd" clip-rule="evenodd" d="M24.7068 27.6947C24.5193 27.8822 24.265 27.9875 23.9998 27.9875C23.7346 27.9875 23.4803 27.8822 23.2928 27.6947L19.2928 23.6947C19.1053 23.5072 19 23.2529 19 22.9877C19 22.7225 19.1053 22.4682 19.2928 22.2807L23.2928 18.2807C23.4814 18.0986 23.734 17.9978 23.9962 18C24.2584 18.0023 24.5092 18.1075 24.6946 18.2929C24.88 18.4783 24.9852 18.7291 24.9875 18.9913C24.9897 19.2535 24.8889 19.5061 24.7068 19.6947L22.4138 21.9877H33.9998C34.265 21.9877 34.5194 22.0931 34.7069 22.2806C34.8944 22.4681 34.9998 22.7225 34.9998 22.9877C34.9998 23.2529 34.8944 23.5073 34.7069 23.6948C34.5194 23.8824 34.265 23.9877 33.9998 23.9877H22.4138L24.7068 26.2807C24.8943 26.4682 24.9996 26.7225 24.9996 26.9877C24.9996 27.2529 24.8943 27.5072 24.7068 27.6947Z" fill="black"/>
<path fill-rule="evenodd" clip-rule="evenodd" d="M95.2928 18.2928C95.4803 18.1053 95.7346 18 95.9998 18C96.265 18 96.5193 18.1053 96.7068 18.2928L100.707 22.2928C100.894 22.4803 101 22.7346 101 22.9998C101 23.265 100.894 23.5193 100.707 23.7068L96.7068 27.7068C96.5182 27.8889 96.2656 27.9897 96.0034 27.9875C95.7412 27.9852 95.4904 27.88 95.305 27.6946C95.1196 27.5092 95.0144 27.2584 95.0121 26.9962C95.0098 26.734 95.1106 26.4814 95.2928 26.2928L97.5858 23.9998H85.9998C85.7346 23.9998 85.4802 23.8944 85.2927 23.7069C85.1051 23.5194 84.9998 23.265 84.9998 22.9998C84.9998 22.7346 85.1051 22.4802 85.2927 22.2927C85.4802 22.1051 85.7346 21.9998 85.9998 21.9998H97.5858L95.2928 19.7068C95.1053 19.5193 95 19.265 95 18.9998C95 18.7346 95.1053 18.4803 95.2928 18.2928Z" fill="black"/>
</g>
<defs>
<filter id="filter0_d_40_78" x="0" y="0" width="136" height="57.9875" filterUnits="userSpaceOnUse" color-interpolation-filters="sRGB">
<feFlood flood-opacity="0" result="BackgroundImageFix"/>
<feColorMatrix in="SourceAlpha" type="matrix" values="0 0 0 0 0 0 0 0 0 0 0 0 0 0 0 0 0 0 127 0" result="hardAlpha"/>
<feOffset dx="8" dy="6"/>
<feGaussianBlur stdDeviation="7"/>
<feComposite in2="hardAlpha" operator="out"/>
<feColorMatrix type="matrix" values="0 0 0 0 0 0 0 0 0 0 0 0 0 0 0 0 0 0 0.25 0"/>
<feBlend mode="normal" in2="BackgroundImageFix" result="effect1_dropShadow_40_78"/>
<feBlend mode="normal" in="SourceGraphic" in2="effect1_dropShadow_40_78" result="shape"/>
</filter>
</defs>
</svg>
