<svg width="305" height="68" viewBox="0 0 305 68" fill="none" xmlns="http://www.w3.org/2000/svg">
<rect width="305" height="68" rx="24" fill="#FFD51E"/>
<path d="M45.5867 25.7837C45.8235 25.5385 46.1068 25.3429 46.4199 25.2084C46.7331 25.0739 47.0699 25.0031 47.4108 25.0001C47.7516 24.9971 48.0896 25.0621 48.4051 25.1911C48.7206 25.3202 49.0072 25.5108 49.2482 25.7518C49.4892 25.9928 49.6798 26.2795 49.8089 26.5949C49.9379 26.9104 50.0029 27.2484 49.9999 27.5892C49.9969 27.9301 49.9261 28.2669 49.7916 28.5801C49.6571 28.8932 49.4615 29.1765 49.2164 29.4133L48.1986 30.4311L44.5689 26.8014L45.5867 25.7837ZM42.7541 28.6163L32 39.3704V43H35.6296L46.385 32.2459L42.7541 28.6163Z" fill="black"/>
<path d="M73.8 25.152C75.576 25.152 77.128 25.504 78.456 26.208C79.784 26.912 80.808 27.904 81.528 29.184C82.264 30.448 82.632 31.912 82.632 33.576C82.632 35.224 82.264 36.688 81.528 37.968C80.808 39.248 79.776 40.24 78.432 40.944C77.104 41.648 75.56 42 73.8 42H67.488V25.152H73.8ZM73.536 38.448C75.088 38.448 76.296 38.024 77.16 37.176C78.024 36.328 78.456 35.128 78.456 33.576C78.456 32.024 78.024 30.816 77.16 29.952C76.296 29.088 75.088 28.656 73.536 28.656H71.592V38.448H73.536ZM84.1095 35.28C84.1095 33.904 84.3655 32.696 84.8775 31.656C85.4055 30.616 86.1175 29.816 87.0135 29.256C87.9095 28.696 88.9095 28.416 90.0135 28.416C90.9575 28.416 91.7815 28.608 92.4855 28.992C93.2055 29.376 93.7575 29.88 94.1415 30.504V28.608H98.2455V42H94.1415V40.104C93.7415 40.728 93.1815 41.232 92.4615 41.616C91.7575 42 90.9335 42.192 89.9895 42.192C88.9015 42.192 87.9095 41.912 87.0135 41.352C86.1175 40.776 85.4055 39.968 84.8775 38.928C84.3655 37.872 84.1095 36.656 84.1095 35.28ZM94.1415 35.304C94.1415 34.28 93.8535 33.472 93.2775 32.88C92.7175 32.288 92.0295 31.992 91.2135 31.992C90.3975 31.992 89.7015 32.288 89.1255 32.88C88.5655 33.456 88.2855 34.256 88.2855 35.28C88.2855 36.304 88.5655 37.12 89.1255 37.728C89.7015 38.32 90.3975 38.616 91.2135 38.616C92.0295 38.616 92.7175 38.32 93.2775 37.728C93.8535 37.136 94.1415 36.328 94.1415 35.304ZM107.935 32.016H105.727V42H101.623V32.016H100.135V28.608H101.623V28.224C101.623 26.576 102.095 25.328 103.039 24.48C103.983 23.616 105.367 23.184 107.191 23.184C107.495 23.184 107.719 23.192 107.863 23.208V26.688C107.079 26.64 106.527 26.752 106.207 27.024C105.887 27.296 105.727 27.784 105.727 28.488V28.608H107.935V32.016ZM117.327 38.52V42H115.239C113.751 42 112.591 41.64 111.759 40.92C110.927 40.184 110.511 38.992 110.511 37.344V32.016H108.879V28.608H110.511V25.344H114.615V28.608H117.303V32.016H114.615V37.392C114.615 37.792 114.711 38.08 114.903 38.256C115.095 38.432 115.415 38.52 115.863 38.52H117.327ZM118.797 35.28C118.797 33.904 119.053 32.696 119.565 31.656C120.093 30.616 120.805 29.816 121.701 29.256C122.597 28.696 123.597 28.416 124.701 28.416C125.645 28.416 126.469 28.608 127.173 28.992C127.893 29.376 128.445 29.88 128.829 30.504V28.608H132.933V42H128.829V40.104C128.429 40.728 127.869 41.232 127.149 41.616C126.445 42 125.621 42.192 124.677 42.192C123.589 42.192 122.597 41.912 121.701 41.352C120.805 40.776 120.093 39.968 119.565 38.928C119.053 37.872 118.797 36.656 118.797 35.28ZM128.829 35.304C128.829 34.28 128.541 33.472 127.965 32.88C127.405 32.288 126.717 31.992 125.901 31.992C125.085 31.992 124.389 32.288 123.813 32.88C123.253 33.456 122.973 34.256 122.973 35.28C122.973 36.304 123.253 37.12 123.813 37.728C124.389 38.32 125.085 38.616 125.901 38.616C126.717 38.616 127.405 38.32 127.965 37.728C128.541 37.136 128.829 36.328 128.829 35.304ZM140.006 30.84C140.486 30.104 141.086 29.528 141.806 29.112C142.526 28.68 143.326 28.464 144.206 28.464V32.808H143.078C142.054 32.808 141.286 33.032 140.774 33.48C140.262 33.912 140.006 34.68 140.006 35.784V42H135.902V28.608H140.006V30.84ZM157.35 42.168C156.118 42.168 155.014 41.968 154.038 41.568C153.062 41.168 152.278 40.576 151.686 39.792C151.11 39.008 150.806 38.064 150.774 36.96H155.142C155.206 37.584 155.422 38.064 155.79 38.4C156.158 38.72 156.638 38.88 157.23 38.88C157.838 38.88 158.318 38.744 158.67 38.472C159.022 38.184 159.198 37.792 159.198 37.296C159.198 36.88 159.054 36.536 158.766 36.264C158.494 35.992 158.15 35.768 157.734 35.592C157.334 35.416 156.758 35.216 156.006 34.992C154.918 34.656 154.03 34.32 153.342 33.984C152.654 33.648 152.062 33.152 151.566 32.496C151.07 31.84 150.822 30.984 150.822 29.928C150.822 28.36 151.39 27.136 152.526 26.256C153.662 25.36 155.142 24.912 156.966 24.912C158.822 24.912 160.318 25.36 161.454 26.256C162.59 27.136 163.198 28.368 163.278 29.952H158.838C158.806 29.408 158.606 28.984 158.238 28.68C157.87 28.36 157.398 28.2 156.822 28.2C156.326 28.2 155.926 28.336 155.622 28.608C155.318 28.864 155.166 29.24 155.166 29.736C155.166 30.28 155.422 30.704 155.934 31.008C156.446 31.312 157.246 31.64 158.334 31.992C159.422 32.36 160.302 32.712 160.974 33.048C161.662 33.384 162.254 33.872 162.75 34.512C163.246 35.152 163.494 35.976 163.494 36.984C163.494 37.944 163.246 38.816 162.75 39.6C162.27 40.384 161.566 41.008 160.638 41.472C159.71 41.936 158.614 42.168 157.35 42.168ZM178.643 35.088C178.643 35.472 178.619 35.872 178.571 36.288H169.283C169.347 37.12 169.611 37.76 170.075 38.208C170.555 38.64 171.139 38.856 171.827 38.856C172.851 38.856 173.563 38.424 173.963 37.56H178.331C178.107 38.44 177.699 39.232 177.107 39.936C176.531 40.64 175.803 41.192 174.923 41.592C174.043 41.992 173.059 42.192 171.971 42.192C170.659 42.192 169.491 41.912 168.467 41.352C167.443 40.792 166.643 39.992 166.067 38.952C165.491 37.912 165.203 36.696 165.203 35.304C165.203 33.912 165.483 32.696 166.043 31.656C166.619 30.616 167.419 29.816 168.443 29.256C169.467 28.696 170.643 28.416 171.971 28.416C173.267 28.416 174.419 28.688 175.427 29.232C176.435 29.776 177.219 30.552 177.779 31.56C178.355 32.568 178.643 33.744 178.643 35.088ZM174.443 34.008C174.443 33.304 174.203 32.744 173.723 32.328C173.243 31.912 172.643 31.704 171.923 31.704C171.235 31.704 170.651 31.904 170.171 32.304C169.707 32.704 169.419 33.272 169.307 34.008H174.443ZM188.992 42L184.912 36.384V42H180.808V24.24H184.912V34.056L188.968 28.608H194.032L188.464 35.328L194.08 42H188.992ZM194.828 35.28C194.828 33.904 195.084 32.696 195.596 31.656C196.124 30.616 196.836 29.816 197.732 29.256C198.628 28.696 199.628 28.416 200.732 28.416C201.676 28.416 202.5 28.608 203.204 28.992C203.924 29.376 204.476 29.88 204.86 30.504V28.608H208.964V42H204.86V40.104C204.46 40.728 203.9 41.232 203.18 41.616C202.476 42 201.652 42.192 200.708 42.192C199.62 42.192 198.628 41.912 197.732 41.352C196.836 40.776 196.124 39.968 195.596 38.928C195.084 37.872 194.828 36.656 194.828 35.28ZM204.86 35.304C204.86 34.28 204.572 33.472 203.996 32.88C203.436 32.288 202.748 31.992 201.932 31.992C201.116 31.992 200.42 32.288 199.844 32.88C199.284 33.456 199.004 34.256 199.004 35.28C199.004 36.304 199.284 37.12 199.844 37.728C200.42 38.32 201.116 38.616 201.932 38.616C202.748 38.616 203.436 38.32 203.996 37.728C204.572 37.136 204.86 36.328 204.86 35.304ZM216.037 30.84C216.517 30.104 217.117 29.528 217.837 29.112C218.557 28.68 219.357 28.464 220.237 28.464V32.808H219.109C218.085 32.808 217.317 33.032 216.805 33.48C216.293 33.912 216.037 34.68 216.037 35.784V42H211.933V28.608H216.037V30.84ZM221.383 35.28C221.383 33.904 221.639 32.696 222.151 31.656C222.679 30.616 223.391 29.816 224.287 29.256C225.183 28.696 226.183 28.416 227.287 28.416C228.231 28.416 229.055 28.608 229.759 28.992C230.479 29.376 231.031 29.88 231.415 30.504V28.608H235.519V42H231.415V40.104C231.015 40.728 230.455 41.232 229.735 41.616C229.031 42 228.207 42.192 227.263 42.192C226.175 42.192 225.183 41.912 224.287 41.352C223.391 40.776 222.679 39.968 222.151 38.928C221.639 37.872 221.383 36.656 221.383 35.28ZM231.415 35.304C231.415 34.28 231.127 33.472 230.551 32.88C229.991 32.288 229.303 31.992 228.487 31.992C227.671 31.992 226.975 32.288 226.399 32.88C225.839 33.456 225.559 34.256 225.559 35.28C225.559 36.304 225.839 37.12 226.399 37.728C226.975 38.32 227.671 38.616 228.487 38.616C229.303 38.616 229.991 38.32 230.551 37.728C231.127 37.136 231.415 36.328 231.415 35.304ZM246.648 28.464C248.216 28.464 249.464 28.976 250.392 30C251.336 31.008 251.808 32.4 251.808 34.176V42H247.728V34.728C247.728 33.832 247.496 33.136 247.032 32.64C246.568 32.144 245.944 31.896 245.16 31.896C244.376 31.896 243.752 32.144 243.288 32.64C242.824 33.136 242.592 33.832 242.592 34.728V42H238.488V28.608H242.592V30.384C243.008 29.792 243.568 29.328 244.272 28.992C244.976 28.64 245.768 28.464 246.648 28.464ZM259.748 28.416C260.692 28.416 261.516 28.608 262.22 28.992C262.94 29.376 263.492 29.88 263.876 30.504V28.608H267.98V41.976C267.98 43.208 267.732 44.32 267.236 45.312C266.756 46.32 266.012 47.12 265.004 47.712C264.012 48.304 262.772 48.6 261.284 48.6C259.3 48.6 257.692 48.128 256.46 47.184C255.228 46.256 254.524 44.992 254.348 43.392H258.404C258.532 43.904 258.836 44.304 259.316 44.592C259.796 44.896 260.388 45.048 261.092 45.048C261.94 45.048 262.612 44.8 263.108 44.304C263.62 43.824 263.876 43.048 263.876 41.976V40.08C263.476 40.704 262.924 41.216 262.22 41.616C261.516 42 260.692 42.192 259.748 42.192C258.644 42.192 257.644 41.912 256.748 41.352C255.852 40.776 255.14 39.968 254.612 38.928C254.1 37.872 253.844 36.656 253.844 35.28C253.844 33.904 254.1 32.696 254.612 31.656C255.14 30.616 255.852 29.816 256.748 29.256C257.644 28.696 258.644 28.416 259.748 28.416ZM263.876 35.304C263.876 34.28 263.588 33.472 263.012 32.88C262.452 32.288 261.764 31.992 260.948 31.992C260.132 31.992 259.436 32.288 258.86 32.88C258.3 33.456 258.02 34.256 258.02 35.28C258.02 36.304 258.3 37.12 258.86 37.728C259.436 38.32 260.132 38.616 260.948 38.616C261.764 38.616 262.452 38.32 263.012 37.728C263.588 37.136 263.876 36.328 263.876 35.304Z" fill="black"/>
</svg>
