<svg width="195" height="59" viewBox="0 0 195 59" fill="none" xmlns="http://www.w3.org/2000/svg">
<rect x="5" y="7" width="190" height="52" rx="24" fill="url(#paint0_linear_23_98)"/>
<rect width="190" height="52" rx="24" fill="white"/>
<path d="M22.5 18.96C23.98 18.96 25.2733 19.2533 26.38 19.84C27.4867 20.4267 28.34 21.2533 28.94 22.32C29.5533 23.3733 29.86 24.5933 29.86 25.98C29.86 27.3533 29.5533 28.5733 28.94 29.64C28.34 30.7067 27.48 31.5333 26.36 32.12C25.2533 32.7067 23.9667 33 22.5 33H17.24V18.96H22.5ZM22.28 30.04C23.5733 30.04 24.58 29.6867 25.3 28.98C26.02 28.2733 26.38 27.2733 26.38 25.98C26.38 24.6867 26.02 23.68 25.3 22.96C24.58 22.24 23.5733 21.88 22.28 21.88H20.66V30.04H22.28ZM33.4913 20.68C32.8913 20.68 32.3979 20.5067 32.0113 20.16C31.6379 19.8 31.4513 19.36 31.4513 18.84C31.4513 18.3067 31.6379 17.8667 32.0113 17.52C32.3979 17.16 32.8913 16.98 33.4913 16.98C34.0779 16.98 34.5579 17.16 34.9313 17.52C35.3179 17.8667 35.5113 18.3067 35.5113 18.84C35.5113 19.36 35.3179 19.8 34.9313 20.16C34.5579 20.5067 34.0779 20.68 33.4913 20.68ZM35.1913 21.84V33H31.7713V21.84H35.1913ZM41.9097 21.68C42.6964 21.68 43.383 21.84 43.9697 22.16C44.5697 22.48 45.0297 22.9 45.3497 23.42V21.84H48.7697V32.98C48.7697 34.0067 48.563 34.9333 48.1497 35.76C47.7497 36.6 47.1297 37.2667 46.2897 37.76C45.463 38.2533 44.4297 38.5 43.1897 38.5C41.5364 38.5 40.1964 38.1067 39.1697 37.32C38.143 36.5467 37.5564 35.4933 37.4097 34.16H40.7897C40.8964 34.5867 41.1497 34.92 41.5497 35.16C41.9497 35.4133 42.443 35.54 43.0297 35.54C43.7364 35.54 44.2964 35.3333 44.7097 34.92C45.1364 34.52 45.3497 33.8733 45.3497 32.98V31.4C45.0164 31.92 44.5564 32.3467 43.9697 32.68C43.383 33 42.6964 33.16 41.9097 33.16C40.9897 33.16 40.1564 32.9267 39.4097 32.46C38.663 31.98 38.0697 31.3067 37.6297 30.44C37.203 29.56 36.9897 28.5467 36.9897 27.4C36.9897 26.2533 37.203 25.2467 37.6297 24.38C38.0697 23.5133 38.663 22.8467 39.4097 22.38C40.1564 21.9133 40.9897 21.68 41.9097 21.68ZM45.3497 27.42C45.3497 26.5667 45.1097 25.8933 44.6297 25.4C44.163 24.9067 43.5897 24.66 42.9097 24.66C42.2297 24.66 41.6497 24.9067 41.1697 25.4C40.703 25.88 40.4697 26.5467 40.4697 27.4C40.4697 28.2533 40.703 28.9333 41.1697 29.44C41.6497 29.9333 42.2297 30.18 42.9097 30.18C43.5897 30.18 44.163 29.9333 44.6297 29.44C45.1097 28.9467 45.3497 28.2733 45.3497 27.42ZM52.9639 20.68C52.3639 20.68 51.8706 20.5067 51.4839 20.16C51.1106 19.8 50.9239 19.36 50.9239 18.84C50.9239 18.3067 51.1106 17.8667 51.4839 17.52C51.8706 17.16 52.3639 16.98 52.9639 16.98C53.5506 16.98 54.0306 17.16 54.4039 17.52C54.7906 17.8667 54.9839 18.3067 54.9839 18.84C54.9839 19.36 54.7906 19.8 54.4039 20.16C54.0306 20.5067 53.5506 20.68 52.9639 20.68ZM54.6639 21.84V33H51.2439V21.84H54.6639ZM63.3623 30.1V33H61.6223C60.3823 33 59.4157 32.7 58.7223 32.1C58.029 31.4867 57.6823 30.4933 57.6823 29.12V24.68H56.3223V21.84H57.6823V19.12H61.1023V21.84H63.3423V24.68H61.1023V29.16C61.1023 29.4933 61.1823 29.7333 61.3423 29.88C61.5023 30.0267 61.769 30.1 62.1423 30.1H63.3623ZM64.5873 27.4C64.5873 26.2533 64.8007 25.2467 65.2273 24.38C65.6673 23.5133 66.2607 22.8467 67.0073 22.38C67.754 21.9133 68.5873 21.68 69.5073 21.68C70.294 21.68 70.9807 21.84 71.5673 22.16C72.1673 22.48 72.6273 22.9 72.9473 23.42V21.84H76.3673V33H72.9473V31.42C72.614 31.94 72.1473 32.36 71.5473 32.68C70.9607 33 70.274 33.16 69.4873 33.16C68.5807 33.16 67.754 32.9267 67.0073 32.46C66.2607 31.98 65.6673 31.3067 65.2273 30.44C64.8007 29.56 64.5873 28.5467 64.5873 27.4ZM72.9473 27.42C72.9473 26.5667 72.7073 25.8933 72.2273 25.4C71.7607 24.9067 71.1873 24.66 70.5073 24.66C69.8273 24.66 69.2473 24.9067 68.7673 25.4C68.3007 25.88 68.0673 26.5467 68.0673 27.4C68.0673 28.2533 68.3007 28.9333 68.7673 29.44C69.2473 29.9333 69.8273 30.18 70.5073 30.18C71.1873 30.18 71.7607 29.9333 72.2273 29.44C72.7073 28.9467 72.9473 28.2733 72.9473 27.42ZM82.2616 18.2V33H78.8416V18.2H82.2616ZM92.3983 30.36H96.8783V33H88.9783V18.96H92.3983V30.36ZM109.03 27.24C109.03 27.56 109.01 27.8933 108.97 28.24H101.23C101.283 28.9333 101.503 29.4667 101.89 29.84C102.29 30.2 102.776 30.38 103.35 30.38C104.203 30.38 104.796 30.02 105.13 29.3H108.77C108.583 30.0333 108.243 30.6933 107.75 31.28C107.27 31.8667 106.663 32.3267 105.93 32.66C105.196 32.9933 104.376 33.16 103.47 33.16C102.376 33.16 101.403 32.9267 100.55 32.46C99.6962 31.9933 99.0295 31.3267 98.5495 30.46C98.0695 29.5933 97.8295 28.58 97.8295 27.42C97.8295 26.26 98.0629 25.2467 98.5295 24.38C99.0095 23.5133 99.6762 22.8467 100.53 22.38C101.383 21.9133 102.363 21.68 103.47 21.68C104.55 21.68 105.51 21.9067 106.35 22.36C107.19 22.8133 107.843 23.46 108.31 24.3C108.79 25.14 109.03 26.12 109.03 27.24ZM105.53 26.34C105.53 25.7533 105.33 25.2867 104.93 24.94C104.53 24.5933 104.03 24.42 103.43 24.42C102.856 24.42 102.37 24.5867 101.97 24.92C101.583 25.2533 101.343 25.7267 101.25 26.34H105.53ZM110.154 27.4C110.154 26.2533 110.367 25.2467 110.794 24.38C111.234 23.5133 111.827 22.8467 112.574 22.38C113.32 21.9133 114.154 21.68 115.074 21.68C115.86 21.68 116.547 21.84 117.134 22.16C117.734 22.48 118.194 22.9 118.514 23.42V21.84H121.934V33H118.514V31.42C118.18 31.94 117.714 32.36 117.114 32.68C116.527 33 115.84 33.16 115.054 33.16C114.147 33.16 113.32 32.9267 112.574 32.46C111.827 31.98 111.234 31.3067 110.794 30.44C110.367 29.56 110.154 28.5467 110.154 27.4ZM118.514 27.42C118.514 26.5667 118.274 25.8933 117.794 25.4C117.327 24.9067 116.754 24.66 116.074 24.66C115.394 24.66 114.814 24.9067 114.334 25.4C113.867 25.88 113.634 26.5467 113.634 27.4C113.634 28.2533 113.867 28.9333 114.334 29.44C114.814 29.9333 115.394 30.18 116.074 30.18C116.754 30.18 117.327 29.9333 117.794 29.44C118.274 28.9467 118.514 28.2733 118.514 27.42ZM127.828 23.7C128.228 23.0867 128.728 22.6067 129.328 22.26C129.928 21.9 130.595 21.72 131.328 21.72V25.34H130.388C129.535 25.34 128.895 25.5267 128.468 25.9C128.041 26.26 127.828 26.9 127.828 27.82V33H124.408V21.84H127.828V23.7ZM139.763 21.72C141.069 21.72 142.109 22.1467 142.883 23C143.669 23.84 144.063 25 144.063 26.48V33H140.663V26.94C140.663 26.1933 140.469 25.6133 140.083 25.2C139.696 24.7867 139.176 24.58 138.523 24.58C137.869 24.58 137.349 24.7867 136.963 25.2C136.576 25.6133 136.383 26.1933 136.383 26.94V33H132.963V21.84H136.383V23.32C136.729 22.8267 137.196 22.44 137.783 22.16C138.369 21.8667 139.029 21.72 139.763 21.72ZM148.159 20.68C147.559 20.68 147.066 20.5067 146.679 20.16C146.306 19.8 146.119 19.36 146.119 18.84C146.119 18.3067 146.306 17.8667 146.679 17.52C147.066 17.16 147.559 16.98 148.159 16.98C148.746 16.98 149.226 17.16 149.599 17.52C149.986 17.8667 150.179 18.3067 150.179 18.84C150.179 19.36 149.986 19.8 149.599 20.16C149.226 20.5067 148.746 20.68 148.159 20.68ZM149.859 21.84V33H146.439V21.84H149.859ZM159.138 21.72C160.444 21.72 161.484 22.1467 162.258 23C163.044 23.84 163.438 25 163.438 26.48V33H160.038V26.94C160.038 26.1933 159.844 25.6133 159.458 25.2C159.071 24.7867 158.551 24.58 157.898 24.58C157.244 24.58 156.724 24.7867 156.338 25.2C155.951 25.6133 155.758 26.1933 155.758 26.94V33H152.338V21.84H155.758V23.32C156.104 22.8267 156.571 22.44 157.158 22.16C157.744 21.8667 158.404 21.72 159.138 21.72ZM170.054 21.68C170.841 21.68 171.528 21.84 172.114 22.16C172.714 22.48 173.174 22.9 173.494 23.42V21.84H176.914V32.98C176.914 34.0067 176.708 34.9333 176.294 35.76C175.894 36.6 175.274 37.2667 174.434 37.76C173.608 38.2533 172.574 38.5 171.334 38.5C169.681 38.5 168.341 38.1067 167.314 37.32C166.288 36.5467 165.701 35.4933 165.554 34.16H168.934C169.041 34.5867 169.294 34.92 169.694 35.16C170.094 35.4133 170.588 35.54 171.174 35.54C171.881 35.54 172.441 35.3333 172.854 34.92C173.281 34.52 173.494 33.8733 173.494 32.98V31.4C173.161 31.92 172.701 32.3467 172.114 32.68C171.528 33 170.841 33.16 170.054 33.16C169.134 33.16 168.301 32.9267 167.554 32.46C166.808 31.98 166.214 31.3067 165.774 30.44C165.348 29.56 165.134 28.5467 165.134 27.4C165.134 26.2533 165.348 25.2467 165.774 24.38C166.214 23.5133 166.808 22.8467 167.554 22.38C168.301 21.9133 169.134 21.68 170.054 21.68ZM173.494 27.42C173.494 26.5667 173.254 25.8933 172.774 25.4C172.308 24.9067 171.734 24.66 171.054 24.66C170.374 24.66 169.794 24.9067 169.314 25.4C168.848 25.88 168.614 26.5467 168.614 27.4C168.614 28.2533 168.848 28.9333 169.314 29.44C169.794 29.9333 170.374 30.18 171.054 30.18C171.734 30.18 172.308 29.9333 172.774 29.44C173.254 28.9467 173.494 28.2733 173.494 27.42Z" fill="#023047"/>
<defs>
<linearGradient id="paint0_linear_23_98" x1="100" y1="7" x2="100" y2="59" gradientUnits="userSpaceOnUse">
<stop stop-color="#7098EE"/>
<stop offset="0.9999" stop-color="#0236A7"/>
<stop offset="1" stop-color="#264998" stop-opacity="0"/>
</linearGradient>
</defs>
</svg>
